{
  "source": "C:\\Users\\Peter\\Desktop\\stuff\\MIUN\\quantitative_research\\video_compression\\videos\\BVI-HD\\PlasmaSlowRandom_1920x1080_60fps.mp4",
  "output": "C:\\Users\\Peter\\Desktop\\stuff\\MIUN\\quantitative_research\\video_compression\\compressed_videos\\BVI-HD\\h264\\12\\PlasmaSlowRandom_1920x1080_60fps_h264.mp4",
  "codec": "h264",
  "ok": "Input #0, mov,mp4,m4a,3gp,3g2,mj2, from 'C:\\Users\\Peter\\Desktop\\stuff\\MIUN\\quantitative_research\\video_compression\\videos\\BVI-HD\\PlasmaSlowRandom_1920x1080_60fps.mp4':\n  Metadata:\n    major_brand     : isom\n    minor_version   : 512\n    compatible_brands: isomiso2avc1mp41\n    encoder         : Lavf54.28.101\n  Duration: 00:00:05.00, start: 0.000000, bitrate: 23030 kb/s\n  Stream #0:0[0x1](und): Video: h264 (High 4:4:4 Predictive) (avc1 / 0x31637661), yuv420p(progressive), 1920x1080, 23026 kb/s, 60 fps, 60 tbr, 60 tbn (default)\n    Metadata:\n      handler_name    : VideoHandler\n      vendor_id       : [0][0][0][0]\n[out#0/mp4 @ 000001f83a601200] Codec AVOption b:a (set bitrate (in bits/s)) has not been used for any stream. The most likely reason is either wrong type (e.g. a video option with no video streams) or that it is a private option of some decoder which was not actually used for any stream.\nStream mapping:\n  Stream #0:0 -> #0:0 (h264 (native) -> h264 (libx264))\nPress [q] to stop, [?] for help\n[libx264 @ 000001f83ac3d3c0] using cpu capabilities: MMX2 SSE2Fast SSSE3 SSE4.2 AVX FMA3 BMI2 AVX2\n[libx264 @ 000001f83ac3d3c0] profile High, level 5.0, 4:2:0, 8-bit\n[libx264 @ 000001f83ac3d3c0] 264 - core 165 r3222 b35605a - H.264/MPEG-4 AVC codec - Copyleft 2003-2025 - http://www.videolan.org/x264.html - options: cabac=1 ref=5 deblock=1:0:0 analyse=0x3:0x113 me=hex subme=8 psy=1 psy_rd=1.00:0.00 mixed_ref=1 me_range=16 chroma_me=1 trellis=2 8x8dct=1 cqm=0 deadzone=21,11 fast_pskip=1 chroma_qp_offset=-2 threads=18 lookahead_threads=3 sliced_threads=0 nr=0 decimate=1 interlaced=0 bluray_compat=0 constrained_intra=0 bframes=3 b_pyramid=2 b_adapt=1 b_bias=0 direct=3 weightb=1 open_gop=0 weightp=2 keyint=250 keyint_min=25 scenecut=40 intra_refresh=0 rc_lookahead=50 rc=cbr mbtree=1 bitrate=12000 ratetol=1.0 qcomp=0.60 qpmin=0 qpmax=69 qpstep=4 vbv_maxrate=12000 vbv_bufsize=12000 nal_hrd=none filler=0 ip_ratio=1.40 aq=1:1.00\nOutput #0, mp4, to 'C:\\Users\\Peter\\Desktop\\stuff\\MIUN\\quantitative_research\\video_compression\\compressed_videos\\BVI-HD\\h264\\12\\PlasmaSlowRandom_1920x1080_60fps_h264.mp4':\n  Metadata:\n    major_brand     : isom\n    minor_version   : 512\n    compatible_brands: isomiso2avc1mp41\n    encoder         : Lavf62.3.100\n  Stream #0:0(und): Video: h264 (avc1 / 0x31637661), yuv420p(tv, progressive), 1920x1080, q=2-31, 12000 kb/s, 60 fps, 15360 tbn (default)\n    Metadata:\n      encoder         : Lavc62.11.100 libx264\n      handler_name    : VideoHandler\n      vendor_id       : [0][0][0][0]\n    Side data:\n      cpb: bitrate max/min/avg: 12000000/0/12000000 buffer size: 12000000 vbv_delay: N/A\nframe=    0 fps=0.0 q=0.0 size=       0KiB time=N/A bitrate=N/A speed=N/A elapsed=0:00:00.51    \nframe=   24 fps= 23 q=12.0 size=     256KiB time=00:00:00.36 bitrate=5720.5kbits/s speed=0.353x elapsed=0:00:01.03    \nframe=   84 fps= 53 q=11.0 size=    1280KiB time=00:00:01.23 bitrate=8502.3kbits/s speed=0.78x elapsed=0:00:01.58    \nframe=  125 fps= 59 q=11.0 size=    2304KiB time=00:00:02.05 bitrate=9207.2kbits/s speed=0.964x elapsed=0:00:02.12    \nframe=  155 fps= 58 q=11.0 size=    2816KiB time=00:00:02.55 bitrate=9046.7kbits/s speed=0.961x elapsed=0:00:02.65    \nframe=  207 fps= 65 q=10.0 size=    4096KiB time=00:00:03.35 bitrate=10016.4kbits/s speed=1.05x elapsed=0:00:03.18    \nframe=  249 fps= 67 q=10.0 size=    4864KiB time=00:00:04.10 bitrate=9718.6kbits/s speed= 1.1x elapsed=0:00:03.73    \nframe=  291 fps= 68 q=-1.0 size=    5888KiB time=00:00:04.76 bitrate=10119.2kbits/s speed=1.11x elapsed=0:00:04.30    \n[mp4 @ 000001f83a601300] Starting second pass: moving the moov atom to the beginning of the file\n[out#0/mp4 @ 000001f83a601200] video:6331KiB audio:0KiB subtitle:0KiB other streams:0KiB global headers:0KiB muxing overhead: 0.070264%\nframe=  300 fps= 68 q=-1.0 Lsize=    6335KiB time=00:00:04.96 bitrate=10449.3kbits/s speed=1.13x elapsed=0:00:04.39    \n[libx264 @ 000001f83ac3d3c0] frame I:3     Avg QP: 0.40  size: 26583\n[libx264 @ 000001f83ac3d3c0] frame P:76    Avg QP: 2.75  size: 21945\n[libx264 @ 000001f83ac3d3c0] frame B:221   Avg QP: 3.78  size: 21423\n[libx264 @ 000001f83ac3d3c0] consecutive B-frames:  1.3%  1.3%  0.0% 97.3%\n[libx264 @ 000001f83ac3d3c0] mb I  I16..4: 95.6%  3.5%  0.8%\n[libx264 @ 000001f83ac3d3c0] mb P  I16..4:  2.0%  3.2%  0.3%  P16..4:  0.7%  0.3%  0.2%  0.0%  0.0%    skip:93.3%\n[libx264 @ 000001f83ac3d3c0] mb B  I16..4:  0.0%  1.4%  1.2%  B16..8:  1.0%  0.5%  0.3%  direct: 0.6%  skip:95.1%  L0:39.1% L1:32.6% BI:28.3%\n[libx264 @ 000001f83ac3d3c0] 8x8 transform intra:43.7% inter:79.8%\n[libx264 @ 000001f83ac3d3c0] direct mvs  spatial:95.5% temporal:4.5%\n[libx264 @ 000001f83ac3d3c0] coded y,uvDC,uvAC intra: 61.5% 65.1% 64.6% inter: 1.3% 1.5% 1.5%\n[libx264 @ 000001f83ac3d3c0] i16 v,h,dc,p: 98%  0%  1%  0%\n[libx264 @ 000001f83ac3d3c0] i8 v,h,dc,ddl,ddr,vr,hd,vl,hu: 18% 22% 20%  4%  6%  6%  8%  7%  8%\n[libx264 @ 000001f83ac3d3c0] i4 v,h,dc,ddl,ddr,vr,hd,vl,hu: 17% 21% 11%  7%  9%  8% 10%  8% 10%\n[libx264 @ 000001f83ac3d3c0] i8c dc,h,v,p: 65% 16% 11%  8%\n[libx264 @ 000001f83ac3d3c0] Weighted P-Frames: Y:1.3% UV:1.3%\n[libx264 @ 000001f83ac3d3c0] ref P L0: 55.5%  2.4% 18.8% 12.0% 11.0%  0.2%\n[libx264 @ 000001f83ac3d3c0] ref B L0: 84.1% 10.7%  4.0%  1.2%\n[libx264 @ 000001f83ac3d3c0] ref B L1: 96.0%  4.0%\n[libx264 @ 000001f83ac3d3c0] kb/s:10371.15\n",
  "seconds": 4.729787111282349,
  "probe_out": {}
}